<svg width="120" height="77" viewBox="0 0 120 77" fill="none" xmlns="http://www.w3.org/2000/svg">
<path id="Vector" d="M81.8182 32.7273C90.8727 32.7273 98.1273 25.4182 98.1273 16.3636C98.1273 7.30909 90.8727 0 81.8182 0C72.7636 0 65.4545 7.30909 65.4545 16.3636C65.4545 25.4182 72.7636 32.7273 81.8182 32.7273ZM38.1818 32.7273C47.2364 32.7273 54.4909 25.4182 54.4909 16.3636C54.4909 7.30909 47.2364 0 38.1818 0C29.1273 0 21.8182 7.30909 21.8182 16.3636C21.8182 25.4182 29.1273 32.7273 38.1818 32.7273ZM38.1818 43.6364C25.4727 43.6364 0 50.0182 0 62.7273V76.3636H76.3636V62.7273C76.3636 50.0182 50.8909 43.6364 38.1818 43.6364ZM81.8182 43.6364C80.2364 43.6364 78.4364 43.7455 76.5273 43.9091C82.8545 48.4909 87.2727 54.6545 87.2727 62.7273V76.3636H120V62.7273C120 50.0182 94.5273 43.6364 81.8182 43.6364Z" fill="#F2CCA2"/>
</svg>
