<svg width="120" height="121" viewBox="0 0 120 121" fill="none" xmlns="http://www.w3.org/2000/svg">
<path id="Vector" d="M95.5023 57.8344C97.2122 57.8344 98.8717 57.9853 100.531 58.1865L100.582 0L0 100.582H58.1362C57.935 98.922 57.7841 97.2624 57.7841 95.5526C57.7841 74.7322 74.6819 57.8344 95.5023 57.8344ZM114.16 98.0168C114.261 97.2122 114.361 96.4075 114.361 95.5526C114.361 94.6976 114.311 93.893 114.16 93.0883L119.491 88.9142C119.944 88.5118 120.094 87.8581 119.793 87.3049L114.764 78.6045C114.462 78.0514 113.808 77.8502 113.205 78.0514L106.969 80.5659C105.661 79.5601 104.253 78.7051 102.694 78.1016L101.738 71.4633C101.688 70.8598 101.135 70.4071 100.531 70.4071H90.4732C89.8697 70.4071 89.3165 70.8598 89.2159 71.4633L88.2604 78.1016C86.7517 78.7554 85.2932 79.5601 83.9857 80.5659L77.7496 78.0514C77.1964 77.8502 76.5426 78.0514 76.1906 78.6045L71.1615 87.3049C70.8598 87.8581 70.9603 88.5118 71.4633 88.9142L76.7941 93.0883C76.6935 93.893 76.6432 94.6976 76.6432 95.5526C76.6432 96.4075 76.6935 97.2122 76.7941 98.0168L71.4633 102.191C71.0106 102.593 70.8598 103.247 71.1615 103.8L76.1906 112.501C76.4923 113.054 77.1461 113.255 77.7496 113.054L83.9857 110.539C85.2932 111.545 86.7014 112.4 88.2604 113.003L89.2159 119.642C89.3165 120.245 89.8194 120.698 90.4732 120.698H100.531C101.135 120.698 101.688 120.245 101.789 119.642L102.744 113.003C104.253 112.35 105.711 111.545 106.969 110.539L113.255 113.054C113.808 113.255 114.462 113.054 114.814 112.501L119.843 103.8C120.145 103.247 119.994 102.593 119.541 102.191L114.16 98.0168ZM95.5023 103.096C91.3281 103.096 87.9586 99.7267 87.9586 95.5526C87.9586 91.3784 91.3281 88.0089 95.5023 88.0089C99.6764 88.0089 103.046 91.3784 103.046 95.5526C103.046 99.7267 99.6764 103.096 95.5023 103.096Z" fill="#F2CCA2"/>
</svg>
