<svg width="180" height="180" viewBox="0 0 180 180" fill="none" xmlns="http://www.w3.org/2000/svg">
<g id="Car repair" clip-path="url(#clip0_249_437)">
<g id="Group">
<path id="Vector" d="M121.65 90C126.75 90 130.8 85.95 130.8 80.85C130.8 75.825 126.75 71.7 121.65 71.7C116.55 71.7 112.5 75.825 112.5 80.85C112.5 85.95 116.625 90 121.65 90ZM49.2 80.85C49.2 85.875 53.25 90 58.35 90C63.45 90 67.5 85.95 67.5 80.85C67.5 75.825 63.45 71.7 58.35 71.7C53.25 71.7 49.2 75.825 49.2 80.85ZM57.075 30L47.1 60H132.825L122.85 30H57.075ZM122.1 22.5C122.1 22.5 126.15 22.575 129 26.55C129.15 26.7 129.225 26.85 129.375 27.075C129.9 27.9 130.425 28.875 130.8 30.075C132.45 34.95 142.5 65.175 142.5 65.175V113.925C142.5 117.3 139.875 120 136.65 120H133.35C130.125 120 127.5 117.3 127.5 113.925V105H52.5V113.925C52.5 117.3 49.875 120 46.65 120H43.35C40.125 120 37.5 117.3 37.5 113.925V65.175C37.5 65.175 47.55 35.025 49.125 30C49.5 28.8 50.025 27.9 50.55 27C50.775 26.85 50.85 26.7 51 26.55C53.85 22.575 57.9 22.5 57.9 22.5H122.1ZM30 127.575H150V142.5H97.5V165H82.5V142.5H30V127.575Z" fill="#F2CCA2"/>
</g>
</g>
<defs>
<clipPath id="clip0_249_437">
<rect width="180" height="180" fill="white"/>
</clipPath>
</defs>
</svg>
