<svg width="120" height="120" viewBox="0 0 120 120" fill="none" xmlns="http://www.w3.org/2000/svg">
<g id="Group 8">
<g id="Group">
<path id="Vector" d="M120 54V42L60 0L0 42V54H12V108H0V120H120V108H108V54H120ZM84 96H72V72L60 90L48 72V96H36V54H48L60 72L72 54H84V96Z" fill="#F2CCA2"/>
</g>
<rect id="Rectangle 29" x="30.75" y="37.5" width="61.5" height="72" fill="#F2CCA2"/>
<path id="Vector_2" d="M85.3733 54.6928C84.64 52.5356 82.5867 51 80.1667 51H39.8333C37.4133 51 35.3967 52.5356 34.6267 54.6928L27 76.5938V105.844C27 107.855 28.65 109.5 30.6667 109.5H34.3333C36.35 109.5 38 107.855 38 105.844V102.188H82V105.844C82 107.855 83.65 109.5 85.6667 109.5H89.3333C91.35 109.5 93 107.855 93 105.844V76.5938L85.3733 54.6928ZM39.8333 91.2188C36.79 91.2188 34.3333 88.7691 34.3333 85.7344C34.3333 82.6997 36.79 80.25 39.8333 80.25C42.8767 80.25 45.3333 82.6997 45.3333 85.7344C45.3333 88.7691 42.8767 91.2188 39.8333 91.2188ZM80.1667 91.2188C77.1233 91.2188 74.6667 88.7691 74.6667 85.7344C74.6667 82.6997 77.1233 80.25 80.1667 80.25C83.21 80.25 85.6667 82.6997 85.6667 85.7344C85.6667 88.7691 83.21 91.2188 80.1667 91.2188ZM34.3333 72.9375L39.8333 56.4844H80.1667L85.6667 72.9375H34.3333Z" fill="white"/>
</g>
</svg>
