<svg width="232" height="232" viewBox="0 0 232 232" fill="none" xmlns="http://www.w3.org/2000/svg">
<g id="&#233;&#165;&#188;&#231;&#138;&#182;&#229;&#155;&#190;">
<g id="Group">
<path id="Vector" d="M231 116C231 96.6654 226.125 77.6429 216.826 60.6913C207.527 43.7397 194.105 29.4062 177.799 19.0161C161.493 8.62601 142.831 2.51476 123.538 1.24736C104.245 -0.0200324 84.9441 3.59735 67.4194 11.7651L115.578 115.094C115.73 115.023 115.898 114.991 116.066 115.002C116.233 115.013 116.396 115.066 116.537 115.157C116.679 115.247 116.796 115.372 116.877 115.519C116.958 115.666 117 115.832 117 116H231Z" fill="#5BC49F" stroke="white"/>
</g>
<g id="Group_2">
<path id="Vector_2" d="M67.4194 11.7651C51.2073 19.3211 36.9812 30.5544 25.8718 44.5724C14.7624 58.5903 7.07593 75.0064 3.42334 92.5159L115.021 115.796C115.053 115.644 115.12 115.501 115.216 115.379C115.313 115.257 115.437 115.159 115.577 115.094L67.4194 11.7651Z" fill="#2797FF" stroke="white"/>
</g>
<g id="Group_3">
<path id="Vector_3" d="M3.42344 92.5159C-1.14214 114.402 0.770832 137.144 8.92829 157.96C17.0857 178.776 31.1339 196.763 49.3539 209.719C67.5739 222.676 89.1755 230.041 111.516 230.913C133.856 231.784 155.966 226.125 175.14 214.628L116.514 116.858C116.348 116.958 116.155 117.007 115.961 116.999C115.767 116.992 115.579 116.928 115.421 116.815C115.262 116.702 115.14 116.546 115.069 116.365C114.998 116.184 114.981 115.986 115.021 115.796L3.42344 92.5159Z" fill="#32D3EB" stroke="white"/>
</g>
<g id="Group_4">
<path id="Vector_4" d="M175.14 214.628C192.176 204.413 206.276 189.959 216.065 172.674C225.855 155.39 231 135.864 231 116H117C117 116.173 116.955 116.343 116.87 116.493C116.785 116.643 116.662 116.769 116.514 116.858L175.14 214.628Z" fill="#FEB64D" stroke="white"/>
</g>
</g>
</svg>
