<svg width="66" height="59" viewBox="0 0 66 59" fill="none" xmlns="http://www.w3.org/2000/svg">
<path d="M58.3733 3.69281C57.64 1.53563 55.5867 0 53.1667 0H12.8333C10.4133 0 8.39667 1.53563 7.62667 3.69281L0 25.5938V54.8438C0 56.8547 1.65 58.5 3.66667 58.5H7.33333C9.35 58.5 11 56.8547 11 54.8438V51.1875H55V54.8438C55 56.8547 56.65 58.5 58.6667 58.5H62.3333C64.35 58.5 66 56.8547 66 54.8438V25.5938L58.3733 3.69281ZM12.8333 40.2188C9.79 40.2188 7.33333 37.7691 7.33333 34.7344C7.33333 31.6997 9.79 29.25 12.8333 29.25C15.8767 29.25 18.3333 31.6997 18.3333 34.7344C18.3333 37.7691 15.8767 40.2188 12.8333 40.2188ZM53.1667 40.2188C50.1233 40.2188 47.6667 37.7691 47.6667 34.7344C47.6667 31.6997 50.1233 29.25 53.1667 29.25C56.21 29.25 58.6667 31.6997 58.6667 34.7344C58.6667 37.7691 56.21 40.2188 53.1667 40.2188ZM7.33333 21.9375L12.8333 5.48438H53.1667L58.6667 21.9375H7.33333Z" fill="white"/>
</svg>
